<mxfile host="app.diagrams.net" modified="2023-04-10T11:49:12.344Z" agent="Mozilla/5.0 (Windows NT 10.0; Win64; x64) AppleWebKit/537.36 (KHTML, like Gecko) Chrome/112.0.0.0 Safari/537.36" etag="Iy9--pRs16eRaca0lPU_" version="21.1.5" type="github">
  <diagram name="Page-1" id="nF1ajHOt5IyO5t8-scIK">
    <mxGraphModel dx="574" dy="322" grid="1" gridSize="10" guides="1" tooltips="1" connect="1" arrows="1" fold="1" page="1" pageScale="1" pageWidth="1169" pageHeight="827" math="0" shadow="0">
      <root>
        <mxCell id="0" />
        <mxCell id="1" parent="0" />
        <mxCell id="YYv9o5sGhHZPtvHrjsXI-1" value="NodeMCU-ESP8266" style="rounded=0;whiteSpace=wrap;html=1;" vertex="1" parent="1">
          <mxGeometry x="360" y="280" width="240" height="120" as="geometry" />
        </mxCell>
        <mxCell id="YYv9o5sGhHZPtvHrjsXI-2" value="" style="ellipse;whiteSpace=wrap;html=1;aspect=fixed;" vertex="1" parent="1">
          <mxGeometry x="370" y="290" width="10" height="10" as="geometry" />
        </mxCell>
        <mxCell id="YYv9o5sGhHZPtvHrjsXI-3" value="" style="ellipse;whiteSpace=wrap;html=1;aspect=fixed;" vertex="1" parent="1">
          <mxGeometry x="370" y="380" width="10" height="10" as="geometry" />
        </mxCell>
        <mxCell id="YYv9o5sGhHZPtvHrjsXI-4" value="" style="ellipse;whiteSpace=wrap;html=1;aspect=fixed;" vertex="1" parent="1">
          <mxGeometry x="580" y="290" width="10" height="10" as="geometry" />
        </mxCell>
        <mxCell id="YYv9o5sGhHZPtvHrjsXI-5" value="" style="ellipse;whiteSpace=wrap;html=1;aspect=fixed;" vertex="1" parent="1">
          <mxGeometry x="580" y="380" width="10" height="10" as="geometry" />
        </mxCell>
        <mxCell id="YYv9o5sGhHZPtvHrjsXI-6" value="USB" style="rounded=0;whiteSpace=wrap;html=1;rotation=-90;" vertex="1" parent="1">
          <mxGeometry x="570" y="330" width="30" height="20" as="geometry" />
        </mxCell>
        <mxCell id="YYv9o5sGhHZPtvHrjsXI-7" value="&lt;p style=&quot;line-height: 150%;&quot;&gt;&lt;font style=&quot;font-size: 7px;&quot;&gt;D0&lt;/font&gt;&lt;/p&gt;" style="rounded=0;whiteSpace=wrap;html=1;" vertex="1" parent="1">
          <mxGeometry x="390" y="280" width="20" height="10" as="geometry" />
        </mxCell>
        <mxCell id="YYv9o5sGhHZPtvHrjsXI-8" value="&lt;p style=&quot;line-height: 150%;&quot;&gt;&lt;font style=&quot;font-size: 7px;&quot;&gt;D1&lt;/font&gt;&lt;/p&gt;" style="rounded=0;whiteSpace=wrap;html=1;" vertex="1" parent="1">
          <mxGeometry x="410" y="280" width="20" height="10" as="geometry" />
        </mxCell>
        <mxCell id="YYv9o5sGhHZPtvHrjsXI-9" value="&lt;p style=&quot;line-height: 150%;&quot;&gt;&lt;font style=&quot;font-size: 7px;&quot;&gt;D2&lt;/font&gt;&lt;/p&gt;" style="rounded=0;whiteSpace=wrap;html=1;" vertex="1" parent="1">
          <mxGeometry x="430" y="280" width="20" height="10" as="geometry" />
        </mxCell>
        <mxCell id="YYv9o5sGhHZPtvHrjsXI-10" value="&lt;p style=&quot;line-height: 150%;&quot;&gt;&lt;font style=&quot;font-size: 7px;&quot;&gt;D3&lt;/font&gt;&lt;/p&gt;" style="rounded=0;whiteSpace=wrap;html=1;" vertex="1" parent="1">
          <mxGeometry x="450" y="280" width="20" height="10" as="geometry" />
        </mxCell>
        <mxCell id="YYv9o5sGhHZPtvHrjsXI-11" value="&lt;p style=&quot;line-height: 150%;&quot;&gt;&lt;font style=&quot;font-size: 7px;&quot;&gt;D4&lt;/font&gt;&lt;/p&gt;" style="rounded=0;whiteSpace=wrap;html=1;" vertex="1" parent="1">
          <mxGeometry x="470" y="280" width="20" height="10" as="geometry" />
        </mxCell>
        <mxCell id="YYv9o5sGhHZPtvHrjsXI-12" value="&lt;p style=&quot;line-height: 150%;&quot;&gt;&lt;font style=&quot;font-size: 7px;&quot;&gt;Vin&lt;/font&gt;&lt;/p&gt;" style="rounded=0;whiteSpace=wrap;html=1;" vertex="1" parent="1">
          <mxGeometry x="550" y="380" width="20" height="10" as="geometry" />
        </mxCell>
        <mxCell id="YYv9o5sGhHZPtvHrjsXI-13" value="&lt;p style=&quot;line-height: 150%;&quot;&gt;&lt;font style=&quot;font-size: 7px;&quot;&gt;GND&lt;/font&gt;&lt;/p&gt;" style="rounded=0;whiteSpace=wrap;html=1;" vertex="1" parent="1">
          <mxGeometry x="530" y="380" width="20" height="10" as="geometry" />
        </mxCell>
      </root>
    </mxGraphModel>
  </diagram>
</mxfile>
